<svg width="51" height="52" viewBox="0 0 51 52" fill="none" xmlns="http://www.w3.org/2000/svg">
<path d="M35.47 50.9999H25.37V45.8199C25.37 45.3399 25.28 44.8699 25.09 44.4299C24.9 43.9899 24.63 43.5899 24.28 43.2599C23.41 42.3999 22.15 41.9199 20.82 41.9399C19.64 41.9499 18.5 42.3799 17.6 43.1499C17.01 43.6699 16.31 44.5699 16.31 45.9199V51.0099H6.3C4.63 51.0099 3.03 50.3399 1.85 49.1599C0.669999 47.9799 0 46.3799 0 44.7099V34.6999H5.18C6.22 34.6999 7.23 34.2599 8.02 33.4499C8.46 32.9999 8.81 32.4699 9.05 31.8899C9.29 31.3099 9.41 30.6899 9.4 30.0599C9.37 27.6599 7.39 25.6299 5.09 25.6299H0V15.5099C0 14.6899 0.160003 13.8699 0.480003 13.1099C0.800003 12.3499 1.27 11.6599 1.87 11.0899C3.06 9.93993 4.65 9.30993 6.3 9.31993H13.46V7.67994C13.46 6.68994 13.66 5.71993 14.04 4.80993C14.42 3.89993 14.98 3.07994 15.68 2.38994C16.38 1.69993 17.22 1.15994 18.13 0.789936C19.05 0.419936 20.02 0.249938 21.01 0.259938C25.03 0.329938 28.3 3.69993 28.3 7.76993V9.31993H35.46C36.28 9.31993 37.09 9.46993 37.85 9.77993C38.61 10.0899 39.3 10.5499 39.88 11.1299C40.46 11.7099 40.92 12.3999 41.23 13.1599C41.54 13.9199 41.69 14.7299 41.69 15.5499V22.7099H43.24C47.38 22.7099 50.76 25.9999 50.76 30.0299C50.76 34.0599 47.43 37.5499 43.34 37.5499H41.7V44.7099C41.7 48.1799 38.91 51.0099 35.49 51.0099L35.47 50.9999Z" fill="#1EAB5E"/>
</svg>
