<svg width="38" height="49" viewBox="0 0 38 49" fill="none" xmlns="http://www.w3.org/2000/svg">
<path d="M24.67 0V12H37.01L24.67 0Z" fill="#FF8E00"/>
<path d="M24.76 15.01C22.97 15.01 21.59 13.67 21.59 12.01V0.0100098H4.63C2.08 0.0100098 0 2.02001 0 4.51001V43.51C0 45.99 2.08 48.01 4.63 48.01H32.38C34.93 48.01 37 45.99 37 43.51V15.01H24.76ZM12.47 38.15C10.56 35.63 9.96999 32.35 10.9 29.33H11.2C12.28 29.33 13.37 29.51 14.4 29.87L14.36 30.17C14.32 30.61 14.3 31.04 14.3 31.48C14.3 35.47 16.04 39.3 19.04 41.92C16.46 41.6 14.09 40.25 12.47 38.15ZM20.61 41.82C17.32 39.42 15.36 35.58 15.36 31.48C15.36 31.08 15.36 30.67 15.41 30.28C16.81 30.94 18.04 31.94 18.99 33.18C20.87 35.64 21.47 38.85 20.61 41.82ZM21.87 41.03C22.4 38.06 21.67 34.96 19.82 32.54C18.78 31.17 17.41 30.06 15.86 29.32L15.57 29.18C16.16 25.91 18.02 22.98 20.75 21.04C24.13 23.44 26.15 27.33 26.15 31.48C26.15 35.15 24.58 38.62 21.87 41.03Z" fill="#FF8E00"/>
</svg>
